# xmcd CD database file
#
# Track frame offsets:
#	182
#	9187
#	19000
#	29520
#	40242
#	52037
#	62577
#	73925
#	81065
#	89265
#	99832
#	114017
#	123477
#	135217
#
# Disc length: 1923 seconds
#
# Revision: 2
# Processed by: cddbd v1.5.2PL0 Copyright (c) Steve Scherf et al.
# Submitted via: CDex 1.70beta2
#
DISCID=a507810e
DTITLE=夏金城 - 為了靚靚
DYEAR=1900
DGENRE=New Age
TTITLE0=為了靚靚
TTITLE1=迫巴士
TTITLE2=結婚前後 (站在女性方面唱出)
TTITLE3=股票與我
TTITLE4=新年好運來
TTITLE5=恭喜發財
TTITLE6=馬小靈
TTITLE7=嬌嬌女買靚衫 (站在女性方面唱出)
TTITLE8=搭車難
TTITLE9=賭馬狂熱
TTITLE10=金蛇郎君
TTITLE11=離別
TTITLE12=正邪之爭 (主題曲)
TTITLE13=正邪之爭 (續集)
EXTD=
EXTT0=
EXTT1=
EXTT2=
EXTT3=
EXTT4=
EXTT5=
EXTT6=
EXTT7=
EXTT8=
EXTT9=
EXTT10=
EXTT11=
EXTT12=
EXTT13=
PLAYORDER=
